<svg width="500" height="448" viewBox="0 0 500 448" fill="none" xmlns="http://www.w3.org/2000/svg">
<path d="M300.668 1.7412C297.769 0.329195 294.531 -0.241709 291.323 0.0933544C288.116 0.428418 285.066 1.65602 282.522 3.63665L132.004 120.616H34.4828C25.3374 120.616 16.5665 124.247 10.0998 130.71C3.63299 137.173 0 145.939 0 155.079V292.93C0 302.07 3.63299 310.836 10.0998 317.299C16.5665 323.762 25.3374 327.393 34.4828 327.393H132.004L282.522 444.373C285.069 446.352 288.12 447.577 291.329 447.908C294.538 448.24 297.776 447.666 300.675 446.25C303.573 444.834 306.016 442.634 307.725 439.899C309.435 437.165 310.342 434.006 310.345 430.782V17.2279C310.345 13.9998 309.438 10.8364 307.728 8.09835C306.017 5.36026 303.571 3.15754 300.668 1.7412ZM34.4828 155.079H120.69V292.93H34.4828V155.079ZM275.862 395.543L155.172 301.74V146.27L275.862 52.4661V395.543ZM392.241 167.055C406.109 182.789 413.76 203.037 413.76 224.005C413.76 244.972 406.109 265.221 392.241 280.954C389.195 284.3 384.955 286.314 380.437 286.562C375.918 286.81 371.482 285.273 368.088 282.282C364.693 279.29 362.611 275.085 362.292 270.574C361.972 266.062 363.44 261.605 366.379 258.166C374.695 248.727 379.283 236.581 379.283 224.005C379.283 211.428 374.695 199.283 366.379 189.843C363.44 186.404 361.972 181.948 362.292 177.436C362.611 172.924 364.693 168.719 368.088 165.728C371.482 162.737 375.918 161.199 380.437 161.448C384.955 161.696 389.195 163.71 392.241 167.055ZM500 224.005C500.025 266.398 484.392 307.309 456.099 338.895C453.028 342.216 448.773 344.198 444.253 344.412C439.733 344.626 435.31 343.055 431.938 340.039C428.566 337.022 426.516 332.802 426.23 328.289C425.944 323.775 427.445 319.33 430.409 315.913C453.026 290.639 465.53 257.922 465.53 224.015C465.53 190.109 453.026 157.392 430.409 132.118C428.857 130.439 427.654 128.469 426.872 126.321C426.089 124.173 425.741 121.891 425.849 119.608C425.958 117.324 426.519 115.085 427.502 113.021C428.484 110.957 429.868 109.109 431.572 107.584C433.276 106.059 435.267 104.889 437.428 104.141C439.59 103.392 441.878 103.082 444.161 103.226C446.444 103.37 448.675 103.967 450.724 104.982C452.774 105.997 454.601 107.409 456.099 109.136C484.4 140.708 500.034 181.616 500 224.005Z" fill="url(#paint0_linear_3_7)"/>
<defs>
<linearGradient id="paint0_linear_3_7" x1="0" y1="224" x2="500" y2="224" gradientUnits="userSpaceOnUse">
<stop stop-color="#A3FF8C"/>
<stop offset="1" stop-color="#1D4268"/>
</linearGradient>
</defs>
</svg>
